<svg width="24" height="25" viewBox="0 0 24 25" fill="none" xmlns="http://www.w3.org/2000/svg">
<path d="M14 10.4V8.7C14.55 8.46667 15.1127 8.29167 15.688 8.175C16.2627 8.05833 16.8667 8 17.5 8C17.9333 8 18.3583 8.03333 18.775 8.1C19.1917 8.16667 19.6 8.25 20 8.35V9.95C19.6 9.8 19.196 9.68767 18.788 9.613C18.3793 9.53767 17.95 9.5 17.5 9.5C16.8667 9.5 16.2583 9.57933 15.675 9.738C15.0917 9.896 14.5333 10.1167 14 10.4ZM14 15.9V14.2C14.55 13.9667 15.1127 13.7917 15.688 13.675C16.2627 13.5583 16.8667 13.5 17.5 13.5C17.9333 13.5 18.3583 13.5333 18.775 13.6C19.1917 13.6667 19.6 13.75 20 13.85V15.45C19.6 15.3 19.196 15.1877 18.788 15.113C18.3793 15.0377 17.95 15 17.5 15C16.8667 15 16.2583 15.075 15.675 15.225C15.0917 15.375 14.5333 15.6 14 15.9ZM14 13.15V11.45C14.55 11.2167 15.1127 11.0417 15.688 10.925C16.2627 10.8083 16.8667 10.75 17.5 10.75C17.9333 10.75 18.3583 10.7833 18.775 10.85C19.1917 10.9167 19.6 11 20 11.1V12.7C19.6 12.55 19.196 12.4377 18.788 12.363C18.3793 12.2877 17.95 12.25 17.5 12.25C16.8667 12.25 16.2583 12.3293 15.675 12.488C15.0917 12.646 14.5333 12.8667 14 13.15ZM6.5 16.5C7.28333 16.5 8.046 16.5873 8.788 16.762C9.52933 16.9373 10.2667 17.2 11 17.55V7.7C10.3167 7.3 9.59167 7 8.825 6.8C8.05833 6.6 7.28333 6.5 6.5 6.5C5.9 6.5 5.30433 6.55833 4.713 6.675C4.121 6.79167 3.55 6.96667 3 7.2V17.1C3.58333 16.9 4.16267 16.75 4.738 16.65C5.31267 16.55 5.9 16.5 6.5 16.5ZM13 17.55C13.7333 17.2 14.471 16.9373 15.213 16.762C15.9543 16.5873 16.7167 16.5 17.5 16.5C18.1 16.5 18.6877 16.55 19.263 16.65C19.8377 16.75 20.4167 16.9 21 17.1V7.2C20.45 6.96667 19.8793 6.79167 19.288 6.675C18.696 6.55833 18.1 6.5 17.5 6.5C16.7167 6.5 15.9417 6.6 15.175 6.8C14.4083 7 13.6833 7.3 13 7.7V17.55ZM12 20.5C11.2 19.8667 10.3333 19.375 9.4 19.025C8.46667 18.675 7.5 18.5 6.5 18.5C5.61667 18.5 4.69167 18.6667 3.725 19C2.75833 19.3333 1.85 19.85 1 20.55V6.05C1.73333 5.55 2.596 5.16667 3.588 4.9C4.57933 4.63333 5.55 4.5 6.5 4.5C7.46667 4.5 8.41267 4.625 9.338 4.875C10.2627 5.125 11.15 5.5 12 6C12.85 5.5 13.7377 5.125 14.663 4.875C15.5877 4.625 16.5333 4.5 17.5 4.5C18.45 4.5 19.421 4.63333 20.413 4.9C21.4043 5.16667 22.2667 5.55 23 6.05V20.55C22.1667 19.85 21.2627 19.3333 20.288 19C19.3127 18.6667 18.3833 18.5 17.5 18.5C16.5 18.5 15.5333 18.675 14.6 19.025C13.6667 19.375 12.8 19.8667 12 20.5Z" fill="#004CCC"/>
</svg>
